<svg version="1.1" id="Layer_1" xmlns="http://www.w3.org/2000/svg" xmlns:xlink="http://www.w3.org/1999/xlink" x="0px" y="0px"
	 width="100%" viewBox="0 0 512 512" enable-background="new 0 0 512 512" xml:space="preserve">

<path fill="#C9C9C9" opacity="1.000000" stroke="none" 
	d="
M59.961716,76.920639 
	C64.440208,75.922203 68.913261,74.086792 73.398048,74.057655 
	C109.532272,73.822891 145.669250,73.809799 181.804245,73.975784 
	C202.234070,74.069626 218.494919,90.265732 218.878662,110.772995 
	C219.149658,125.255623 218.952255,139.747131 218.952988,154.234680 
	C218.955719,208.854721 218.960907,263.474762 218.950806,318.094788 
	C218.946152,343.290558 203.329498,358.922333 178.179291,358.927551 
	C144.041763,358.934601 109.903519,359.037994 75.767517,358.810425 
	C70.730011,358.776855 65.703125,357.151276 60.308823,355.726318 
	C59.388096,354.379211 58.913631,353.492310 58.258907,352.768524 
	C50.270565,343.937744 45.832813,333.923950 45.864193,321.678070 
	C46.045498,250.927261 45.985069,180.175751 45.923164,109.424553 
	C45.915264,100.395767 48.793179,92.508583 54.052078,85.328224 
	C56.075783,82.565109 57.994930,79.725426 59.961716,76.920639 
M94.021919,332.995697 
	C98.607658,332.988159 103.193405,332.980591 107.970688,333.701050 
	C108.848022,338.121399 111.611084,340.244415 116.045982,340.239563 
	C136.186386,340.217560 156.332520,340.457031 176.465118,340.043640 
	C189.495132,339.776062 199.716888,328.329651 199.547638,315.295319 
	C199.376724,302.132629 189.087509,291.033936 176.032608,290.936005 
	C143.742126,290.693848 111.447876,290.734406 79.156769,290.930115 
	C69.494736,290.988678 62.407356,296.089539 58.120609,304.615326 
	C50.127617,320.512421 61.183880,339.183105 78.992081,340.163269 
	C89.096336,340.719452 90.790787,339.857574 94.021919,332.995697 
M129.500015,229.918243 
	C113.348831,229.919830 97.197517,229.960663 81.046539,229.903275 
	C74.801987,229.881088 69.252861,231.681335 64.464813,235.683578 
	C56.514675,242.328949 53.553402,253.067291 56.930733,262.791779 
	C60.481792,273.016479 69.377724,279.360657 81.113121,279.407410 
	C112.082886,279.530884 143.053543,279.475189 174.023636,279.401581 
	C176.650192,279.395325 179.371490,279.047913 181.884460,278.303986 
	C193.695602,274.807434 200.810745,263.638153 199.223129,251.413345 
	C197.650742,239.305801 187.765839,230.187653 175.455643,230.006897 
	C160.473236,229.786880 145.485474,229.931396 129.500015,229.918243 
M190.519669,152.082657 
	C199.062469,144.024841 201.715683,133.900177 197.871536,124.027863 
	C194.060913,114.241646 184.989319,108.181068 173.524338,108.152412 
	C142.860855,108.075775 112.196915,108.083443 81.533638,108.192879 
	C78.426422,108.203972 75.186844,108.726898 72.240929,109.708977 
	C60.602871,113.588707 54.090187,124.838554 55.956295,137.322525 
	C57.684475,148.883774 68.145287,157.781937 80.686317,157.831573 
	C111.849442,157.954910 143.017212,158.119278 174.173279,157.634460 
	C179.463226,157.552109 184.704285,154.327835 190.519669,152.082657 
M130.499893,218.751633 
	C143.987259,218.751617 157.474716,218.775681 170.961929,218.729858 
	C173.449539,218.721405 175.964569,218.614914 178.418533,218.238358 
	C191.179321,216.280197 200.252777,205.182953 199.467819,192.628769 
	C198.651657,179.575516 188.494675,169.212646 175.523621,169.124527 
	C143.555283,168.907303 111.583176,168.891815 79.615425,169.148560 
	C69.656342,169.228546 62.208027,174.367355 57.918949,183.443619 
	C49.975712,200.252579 62.108982,218.435638 81.545631,218.703339 
	C97.527565,218.923477 113.514923,218.750412 130.499893,218.751633 
z"/>

<path fill="#A8A8A8" opacity="1.000000" stroke="none" 
	d="
M59.594925,76.906494 
	C57.994930,79.725426 56.075783,82.565109 54.052078,85.328224 
	C48.793179,92.508583 45.915264,100.395767 45.923164,109.424553 
	C45.985069,180.175751 46.045498,250.927261 45.864193,321.678070 
	C45.832813,333.923950 50.270565,343.937744 58.258907,352.768524 
	C58.913631,353.492310 59.388096,354.379211 59.988228,355.528259 
	C46.516308,351.653656 36.440212,337.466156 36.156105,321.762177 
	C35.942139,309.935150 36.097359,298.101379 36.096996,286.270599 
	C36.095230,228.616119 36.060036,170.961609 36.119072,113.307175 
	C36.136410,96.374825 43.596870,83.999176 59.594925,76.906494 
z"/>

<path fill="#665E66" opacity="1.000000" stroke="none" 
	d="
M110.034309,8.125837 
	C124.324913,8.084680 138.615616,8.062192 152.906006,7.982861 
	C155.129059,7.970519 156.812424,8.163012 156.791611,11.074601 
	C156.681076,26.525179 156.663956,41.976418 156.592911,57.427330 
	C156.591568,57.717968 156.324921,58.007389 155.889633,58.890976 
	C141.111618,58.890976 126.045670,58.890976 110.497864,58.387104 
	C110.022118,41.297436 110.028214,24.711636 110.034309,8.125837 
z"/>
<path fill="#504B53" opacity="1.000000" stroke="none" 
	d="
M109.573074,8.066124 
	C110.028214,24.711636 110.022118,41.297436 110.035492,58.335346 
	C98.202301,59.443851 98.202286,59.443851 98.202301,47.907917 
	C98.202309,36.601456 98.432365,25.288092 98.093178,13.991817 
	C97.950439,9.238235 99.253616,7.200147 104.129776,7.931317 
	C105.757614,8.175408 107.449326,7.993552 109.573074,8.066124 
z"/>




<path fill="#040404" opacity="1.000000" stroke="none" 
	d="
M130.000031,229.918243 
	C145.485474,229.931396 160.473236,229.786880 175.455643,230.006897 
	C187.765839,230.187653 197.650742,239.305801 199.223129,251.413345 
	C200.810745,263.638153 193.695602,274.807434 181.884460,278.303986 
	C179.371490,279.047913 176.650192,279.395325 174.023636,279.401581 
	C143.053543,279.475189 112.082886,279.530884 81.113121,279.407410 
	C69.377724,279.360657 60.481792,273.016479 56.930733,262.791779 
	C53.553402,253.067291 56.514675,242.328949 64.464813,235.683578 
	C69.252861,231.681335 74.801987,229.881088 81.046539,229.903275 
	C97.197517,229.960663 113.348831,229.919830 130.000031,229.918243 
M142.499756,264.419952 
	C152.647018,264.419678 162.798004,264.569427 172.939041,264.317932 
	C175.611862,264.251617 178.641388,263.528534 180.823746,262.078552 
	C184.545242,259.605896 185.306183,255.490662 183.853958,251.394592 
	C182.309906,247.039536 178.881470,244.934525 174.208298,244.937057 
	C160.900406,244.944275 147.592514,244.932602 134.284622,244.932098 
	C116.651642,244.931412 99.018440,244.883026 81.385788,244.960358 
	C74.173294,244.991989 69.832100,249.769760 70.798088,256.281158 
	C71.580238,261.553345 75.374153,264.382111 82.113220,264.400269 
	C101.908592,264.453430 121.704208,264.419678 142.499756,264.419952 
z"/>
<path fill="#030303" opacity="1.000000" stroke="none" 
	d="
M190.243805,152.318893 
	C184.704285,154.327835 179.463226,157.552109 174.173279,157.634460 
	C143.017212,158.119278 111.849442,157.954910 80.686317,157.831573 
	C68.145287,157.781937 57.684475,148.883774 55.956295,137.322525 
	C54.090187,124.838554 60.602871,113.588707 72.240929,109.708977 
	C75.186844,108.726898 78.426422,108.203972 81.533638,108.192879 
	C112.196915,108.083443 142.860855,108.075775 173.524338,108.152412 
	C184.989319,108.181068 194.060913,114.241646 197.871536,124.027863 
	C201.715683,133.900177 199.062469,144.024841 190.243805,152.318893 
M116.499962,142.879120 
	C135.143341,142.879089 153.786743,142.896271 172.430069,142.870529 
	C179.865067,142.860260 184.371094,139.194672 184.484604,133.188446 
	C184.601471,127.005173 179.982712,123.138565 172.277679,123.132187 
	C142.315140,123.107361 112.352516,123.100761 82.389992,123.137970 
	C74.980011,123.147163 70.589005,126.958809 70.637596,133.089890 
	C70.686089,139.207962 75.063118,142.845963 82.541153,142.869934 
	C93.527313,142.905151 104.513680,142.879074 116.499962,142.879120 
z"/>
<path fill="#030303" opacity="1.000000" stroke="none" 
	d="
M129.999878,218.751617 
	C113.514923,218.750412 97.527565,218.923477 81.545631,218.703339 
	C62.108982,218.435638 49.975712,200.252579 57.918949,183.443619 
	C62.208027,174.367355 69.656342,169.228546 79.615425,169.148560 
	C111.583176,168.891815 143.555283,168.907303 175.523621,169.124527 
	C188.494675,169.212646 198.651657,179.575516 199.467819,192.628769 
	C200.252777,205.182953 191.179321,216.280197 178.418533,218.238358 
	C175.964569,218.614914 173.449539,218.721405 170.961929,218.729858 
	C157.474716,218.775681 143.987259,218.751617 129.999878,218.751617 
M119.500000,184.031967 
	C107.182762,184.031982 94.865486,184.013565 82.548302,184.038864 
	C75.068710,184.054230 70.680222,187.674561 70.636497,193.776260 
	C70.592430,199.925995 74.922531,203.671005 82.392815,203.736542 
	C91.213936,203.813965 100.036232,203.756882 108.858025,203.756882 
	C129.997025,203.756866 151.136078,203.732956 172.275009,203.772720 
	C177.276199,203.782120 181.623322,202.603271 183.747650,197.581635 
	C186.656403,190.705688 181.634781,184.091446 173.430634,184.056015 
	C155.787384,183.979843 138.143585,184.032211 119.500000,184.031967 
z"/>
<path fill="#040404" opacity="1.000000" stroke="none" 
	d="
M93.105255,332.984924 
	C90.790787,339.857574 89.096336,340.719452 78.992081,340.163269 
	C61.183880,339.183105 50.127617,320.512421 58.120609,304.615326 
	C62.407356,296.089539 69.494736,290.988678 79.156769,290.930115 
	C111.447876,290.734406 143.742126,290.693848 176.032608,290.936005 
	C189.087509,291.033936 199.376724,302.132629 199.547638,315.295319 
	C199.716888,328.329651 189.495132,339.776062 176.465118,340.043640 
	C156.332520,340.457031 136.186386,340.217560 116.045982,340.239563 
	C111.611084,340.244415 108.848022,338.121399 107.957588,332.971252 
	C108.803642,326.587524 112.654770,325.204834 117.683395,325.217804 
	C136.321762,325.265869 154.960678,325.300629 173.598663,325.201721 
	C181.440475,325.160095 186.078033,319.338074 183.999298,312.530701 
	C182.659073,308.141754 178.999863,305.844574 173.029953,305.840118 
	C142.742432,305.817566 112.454849,305.828186 82.167290,305.835571 
	C81.003944,305.835846 79.824471,305.814484 78.680115,305.986664 
	C74.089111,306.677551 70.704048,310.667236 70.639961,315.366119 
	C70.575699,320.077454 73.826180,324.208160 78.384094,324.988556 
	C80.009758,325.266876 81.699768,325.193634 83.361542,325.232513 
	C89.545631,325.377197 91.381317,326.829071 93.105255,332.984924 
z"/>
<path fill="#E1DEE1" opacity="1.000000" stroke="none" 
	d="
M93.563583,332.990295 
	C91.381317,326.829071 89.545631,325.377197 83.361542,325.232513 
	C81.699768,325.193634 80.009758,325.266876 78.384094,324.988556 
	C73.826180,324.208160 70.575699,320.077454 70.639961,315.366119 
	C70.704048,310.667236 74.089111,306.677551 78.680115,305.986664 
	C79.824471,305.814484 81.003944,305.835846 82.167290,305.835571 
	C112.454849,305.828186 142.742432,305.817566 173.029953,305.840118 
	C178.999863,305.844574 182.659073,308.141754 183.999298,312.530701 
	C186.078033,319.338074 181.440475,325.160095 173.598663,325.201721 
	C154.960678,325.300629 136.321762,325.265869 117.683395,325.217804 
	C112.654770,325.204834 108.803642,326.587524 107.861816,332.607239 
	C103.193405,332.980591 98.607658,332.988159 93.563583,332.990295 
z"/>



<path fill="#E1DEE1" opacity="1.000000" stroke="none" 
	d="
M141.999741,264.419983 
	C121.704208,264.419678 101.908592,264.453430 82.113220,264.400269 
	C75.374153,264.382111 71.580238,261.553345 70.798088,256.281158 
	C69.832100,249.769760 74.173294,244.991989 81.385788,244.960358 
	C99.018440,244.883026 116.651642,244.931412 134.284622,244.932098 
	C147.592514,244.932602 160.900406,244.944275 174.208298,244.937057 
	C178.881470,244.934525 182.309906,247.039536 183.853958,251.394592 
	C185.306183,255.490662 184.545242,259.605896 180.823746,262.078552 
	C178.641388,263.528534 175.611862,264.251617 172.939041,264.317932 
	C162.798004,264.569427 152.647018,264.419678 141.999741,264.419983 
z"/>
<path fill="#DDDADD" opacity="1.000000" stroke="none" 
	d="
M115.999954,142.879120 
	C104.513680,142.879074 93.527313,142.905151 82.541153,142.869934 
	C75.063118,142.845963 70.686089,139.207962 70.637596,133.089890 
	C70.589005,126.958809 74.980011,123.147163 82.389992,123.137970 
	C112.352516,123.100761 142.315140,123.107361 172.277679,123.132187 
	C179.982712,123.138565 184.601471,127.005173 184.484604,133.188446 
	C184.371094,139.194672 179.865067,142.860260 172.430069,142.870529 
	C153.786743,142.896271 135.143341,142.879089 115.999954,142.879120 
z"/>
<path fill="#DDDADD" opacity="1.000000" stroke="none" 
	d="
M120.000000,184.031967 
	C138.143585,184.032211 155.787384,183.979843 173.430634,184.056015 
	C181.634781,184.091446 186.656403,190.705688 183.747650,197.581635 
	C181.623322,202.603271 177.276199,203.782120 172.275009,203.772720 
	C151.136078,203.732956 129.997025,203.756866 108.858025,203.756882 
	C100.036232,203.756882 91.213936,203.813965 82.392815,203.736542 
	C74.922531,203.671005 70.592430,199.925995 70.636497,193.776260 
	C70.680222,187.674561 75.068710,184.054230 82.548302,184.038864 
	C94.865486,184.013565 107.182762,184.031982 120.000000,184.031967 
z"/>
</svg>