<svg xmlns="http://www.w3.org/2000/svg" viewBox="-56 -55.981 112 112">
  <path id = "left" d="M -55 0 A 1 1 0 0 0 55 0 A 1 1 0 0 0 -55 0 M -53 0 A 1 1 0 0 0 53 0 A 1 1 0 0 0 -53 0 M -5 -30 C -5 -40 5 -40 5 -30 L 5 -13 C 5 -3 15 -3 15 -13 L 15 -30 C 15 -40 25 -40 25 -30 L 25 30 C 25 40 15 40 15 30 L 15 13 C 15 3 5 3 5 13 L 5 30 C 5 40 -5 40 -5 30 L -5 13 C -5 3 -15 3 -15 13 L -15 30 C -15 40 -25 40 -25 30 L -25 -30 C -25 -40 -15 -40 -15 -30 L -15 -13 C -15 -3 -5 -3 -5 -13 L -5 -30 M -37 -24 A 1 1 0 0 0 -33 -24 A 1 1 0 0 0 -37 -24 M -36.5 -24 A 1 1 0 0 0 -33.5 -24 A 1 1 0 0 0 -36.5 -24 M -36.6 24 A 1 1 0 0 0 -33.4 24 A 1 1 0 0 0 -36.6 24 M -37 24 A 1 1 0 0 0 -33 24 A 1 1 0 0 0 -37 24 M -35.9 25 C -36 25.1 -36.2 24.9 -36.1 24.8 M -36.1 24.8 L -35.2 24 L -36.1 23.2 C -36.2 23.1 -36 22.9 -35.9 23 L -35 23.8 L -34.1 23 C -34 22.9 -33.8 23.1 -33.9 23.2 L -34.8 24 L -33.8 24.8 C -33.7 24.9 -33.9 25.1 -34 25 L -35 24.2 L -35.9 25 M -35.8 -25 C -35.9 -25.1 -36.1 -24.9 -36 -24.8 M -36 -23.2 C -36.1 -23.1 -35.9 -22.9 -35.8 -23 M -34 -24.8 L -34 -24.8 L -34 -24.8 M -34 -24.8 C -33.9 -24.9 -34.1 -25.1 -34.2 -25 L -35 -24.2 M -36 -23.2 L -35.2 -24 L -36 -24.8 M -35.8 -25 L -35 -24.2 M -34 -24.8 L -34.8 -24 L -34 -23.2 C -33.9 -23.1 -34.1 -22.9 -34.2 -23 L -35 -23.8 L -35.8 -23 M 33 -24 A 1 1 0 0 0 37 -24 A 1 1 0 0 0 33 -24 M 33.4 -24 A 1 1 0 0 0 36.6 -24 A 1 1 0 0 0 33.4 -24 M 34.3 -25 C 34.1 -25.2 33.8 -24.9 34 -24.7 L 34.7 -24 L 34 -23.3 C 33.8 -23.1 34.1 -22.8 34.3 -23 L 35 -23.7 L 35.7 -23 C 35.9 -22.8 36.2 -23.1 36 -23.3 L 35.3 -24 L 36 -24.7 C 36.2 -24.9 35.9 -25.2 35.7 -25 L 35 -24.3 L 34.3 -25 M 33 24 A 1 1 0 0 0 37 24 A 1 1 0 0 0 33 24 M 33.3 24 A 1 1 0 0 0 36.7 24 A 1 1 0 0 0 33.3 24 M 34.3 23 C 34.1 22.8 33.8 23.1 34 23.3 L 34.7 24 L 34 24.7 C 33.8 24.9 34.1 25.2 34.3 25 L 35 24.3 L 35.7 25 C 35.9 25.2 36.2 24.9 36 24.7 L 35.3 24 L 36 23.3 C 36.2 23.1 35.9 22.8 35.7 23 L 35 23.7 L 34.3 23" stroke="#F8F8F8" stroke-width="1" fill="	#888888"/>
</svg>