<svg version="1.1" id="Layer_1" xmlns="http://www.w3.org/2000/svg" xmlns:xlink="http://www.w3.org/1999/xlink" x="0px" y="0px"
	 width="100%" viewBox="0 0 512 512" enable-background="new 0 0 512 512" xml:space="preserve">

<path fill="#C9C9C9" opacity="1.000000" stroke="none" 
	d="
M325.038574,78.188614 
	C331.467438,76.766800 337.878052,74.222153 344.328278,74.117462 
	C372.319031,73.663132 400.322021,73.798103 428.319275,73.953949 
	C455.963745,74.107826 477.264496,95.202377 477.846619,122.932655 
	C478.101898,135.093216 477.951752,147.263672 477.879730,159.428986 
	C477.854187,163.742889 479.295502,166.753128 483.671539,168.195953 
	C484.674225,168.526550 485.820740,170.144058 485.899628,171.241302 
	C486.173004,175.043213 486.005066,178.876877 486.005066,182.606506 
	C478.191010,185.886520 477.906738,186.324371 477.906616,195.007477 
	C477.905579,278.835175 477.927887,362.662842 477.892365,446.490540 
	C477.881897,471.211548 463.463593,490.537720 440.568268,496.332336 
	C436.105988,497.461700 431.363983,497.908966 426.746979,497.934021 
	C399.916260,498.079742 373.078461,498.313141 346.256653,497.802979 
	C338.959473,497.664185 331.709137,495.060486 324.187683,492.962036 
	C321.271790,489.182556 318.513123,486.102051 315.955780,482.862640 
	C306.722137,471.166260 304.091461,457.413330 304.076935,443.008667 
	C304.008240,374.852478 303.938995,306.695953 304.086823,238.540039 
	C304.173859,198.409546 304.606934,158.279358 305.017212,118.150383 
	C305.118988,108.196083 308.859802,99.270905 314.429413,91.209702 
	C317.601929,86.617928 321.478851,82.512856 325.038574,78.188614 
M318.097443,241.756714 
	C308.597900,259.807404 319.464111,279.151733 339.674133,279.357574 
	C370.831390,279.674927 401.995178,279.584656 433.154358,279.382141 
	C447.839569,279.286713 458.441711,268.579620 458.414612,254.654434 
	C458.387085,240.517136 447.517853,229.984467 432.611877,229.945724 
	C401.951447,229.865997 371.290466,229.973221 340.630066,229.888947 
	C331.241974,229.863144 323.867859,233.435989 318.097443,241.756714 
M323.647644,357.097321 
	C314.892212,365.256653 312.196289,375.569794 316.209259,385.552551 
	C320.158783,395.377502 329.057983,401.062561 340.709961,401.072418 
	C371.205658,401.098175 401.701385,401.093475 432.197052,401.056396 
	C434.512604,401.053589 436.894745,400.985596 439.132019,400.461609 
	C451.777252,397.500031 459.581085,386.277618 458.181458,373.295410 
	C456.814392,360.615295 446.630280,351.697540 432.568420,351.614136 
	C401.907166,351.432251 371.244110,351.557587 340.581787,351.555878 
	C334.597717,351.555542 329.024048,352.852875 323.647644,357.097321 
M402.499878,340.257782 
	C413.321960,340.226898 424.152832,340.458618 434.963928,340.098389 
	C448.386963,339.651154 458.582092,328.572906 458.400513,315.204254 
	C458.218414,301.796143 447.843262,290.981415 434.347839,290.901550 
	C402.380249,290.712311 370.410431,290.754791 338.442291,290.889069 
	C328.190216,290.932129 319.473633,297.476044 315.976593,307.018097 
	C310.219269,322.727600 321.248352,339.703735 338.065796,340.067444 
	C359.201965,340.524536 380.354431,340.228729 402.499878,340.257782 
M333.574615,461.226776 
	C336.047089,461.484894 338.519196,461.963440 340.992096,461.967651 
	C371.311279,462.019104 401.630585,462.032166 431.949799,461.988068 
	C447.242279,461.965820 458.258148,451.647156 458.393951,437.378632 
	C458.529541,423.128510 447.568481,412.423370 432.337250,412.364746 
	C401.685242,412.246796 371.032135,412.245972 340.380188,412.369537 
	C326.912659,412.423828 316.679688,420.951782 314.876984,433.104492 
	C312.953766,446.069458 319.689728,456.599152 333.574615,461.226776 
M324.027954,152.563660 
	C328.986694,156.355896 334.628693,157.896530 340.822388,157.889709 
	C371.319458,157.856155 401.816742,157.918259 432.313751,157.856247 
	C447.227966,157.825912 458.198425,147.412323 458.395386,133.329269 
	C458.594574,119.086609 447.564423,108.214737 432.451141,108.160355 
	C401.787750,108.050018 371.123566,108.076225 340.459961,108.153229 
	C328.984344,108.182037 319.957977,114.216743 316.117249,124.034264 
	C312.274994,133.855728 314.941956,144.014038 324.027954,152.563660 
M315.182434,200.009140 
	C319.702393,212.769897 327.916107,218.707687 341.491150,218.733276 
	C371.478943,218.789780 401.467041,218.792526 431.454559,218.690231 
	C434.738464,218.679031 438.154907,218.275543 441.277832,217.306274 
	C453.164154,213.617065 459.935974,202.183090 458.040039,189.551651 
	C456.323608,178.116135 445.968811,169.134933 433.826019,169.084961 
	C403.005676,168.958099 372.184448,169.021713 341.363586,169.041977 
	C323.368500,169.053802 312.738220,181.266373 315.182434,200.009140 
z"/>

<path fill="#A9A9A9" opacity="1.000000" stroke="none" 
	d="
M324.684235,78.181679 
	C321.478851,82.512856 317.601929,86.617928 314.429413,91.209702 
	C308.859802,99.270905 305.118988,108.196083 305.017212,118.150383 
	C304.606934,158.279358 304.173859,198.409546 304.086823,238.540039 
	C303.938995,306.695953 304.008240,374.852478 304.076935,443.008667 
	C304.091461,457.413330 306.722137,471.166260 315.955780,482.862640 
	C318.513123,486.102051 321.271790,489.182556 323.962189,492.682739 
	C308.288605,486.410675 299.637390,474.117279 296.075623,457.919312 
	C295.262482,454.221405 295.093170,450.321564 295.091400,446.514435 
	C295.041382,339.449615 295.028442,232.384766 295.069641,125.319939 
	C295.078003,103.629639 304.774536,87.806297 324.684235,78.181679 
z"/>

<path fill="#665E66" opacity="1.000000" stroke="none" 
	d="
M368.043945,8.156239 
	C383.657013,8.156239 399.270050,8.156239 415.296997,8.156239 
	C415.296997,25.068113 415.296997,41.621098 415.296997,58.870823 
	C399.805878,58.870823 384.397400,58.870823 368.513550,58.357330 
	C368.040131,41.281307 368.042023,24.718773 368.043945,8.156239 
z"/>


<path fill="#040404" opacity="1.000000" stroke="none" 
	d="
M318.298035,241.446655 
	C323.867859,233.435989 331.241974,229.863144 340.630066,229.888947 
	C371.290466,229.973221 401.951447,229.865997 432.611877,229.945724 
	C447.517853,229.984467 458.387085,240.517136 458.414612,254.654434 
	C458.441711,268.579620 447.839569,279.286713 433.154358,279.382141 
	C401.995178,279.584656 370.831390,279.674927 339.674133,279.357574 
	C319.464111,279.151733 308.597900,259.807404 318.298035,241.446655 
M348.514282,264.419556 
	C375.463684,264.419556 402.413055,264.422791 429.362457,264.412415 
	C431.189789,264.411713 433.035675,264.455017 434.840942,264.225861 
	C440.485718,263.509247 443.933411,258.960541 443.227173,253.326096 
	C442.564850,248.041809 438.595062,244.954788 432.136230,244.948044 
	C401.693420,244.916214 371.250549,244.933243 340.807709,244.936920 
	C339.976501,244.937012 339.138641,244.924179 338.315125,245.017105 
	C333.190277,245.595215 329.474792,249.745087 329.531891,254.791260 
	C329.587677,259.723938 333.009583,263.677734 338.052490,264.202026 
	C341.182678,264.527435 344.363708,264.363739 348.514282,264.419556 
z"/>
<path fill="#040404" opacity="1.000000" stroke="none" 
	d="
M323.948730,356.895874 
	C329.024048,352.852875 334.597717,351.555542 340.581787,351.555878 
	C371.244110,351.557587 401.907166,351.432251 432.568420,351.614136 
	C446.630280,351.697540 456.814392,360.615295 458.181458,373.295410 
	C459.581085,386.277618 451.777252,397.500031 439.132019,400.461609 
	C436.894745,400.985596 434.512604,401.053589 432.197052,401.056396 
	C401.701385,401.093475 371.205658,401.098175 340.709961,401.072418 
	C329.057983,401.062561 320.158783,395.377502 316.209259,385.552551 
	C312.196289,375.569794 314.892212,365.256653 323.948730,356.895874 
M438.810303,384.651733 
	C443.048126,381.682098 444.391998,377.565002 442.702545,372.838867 
	C441.041168,368.191345 437.134308,366.546875 432.380707,366.580292 
	C427.054077,366.617767 421.726929,366.581207 416.400024,366.581085 
	C391.762970,366.580475 367.125122,366.484772 342.489899,366.697113 
	C339.202911,366.725433 335.477417,367.614136 332.762268,369.359924 
	C329.241577,371.623688 328.741364,375.816528 330.160004,379.708557 
	C331.582916,383.612152 334.590942,386.004791 338.877014,386.011261 
	C370.671692,386.059326 402.466522,386.043488 434.261139,385.984772 
	C435.533081,385.982422 436.803833,385.347748 438.810303,384.651733 
z"/>
<path fill="#040404" opacity="1.000000" stroke="none" 
	d="
M401.999878,340.257782 
	C380.354431,340.228729 359.201965,340.524536 338.065796,340.067444 
	C321.248352,339.703735 310.219269,322.727600 315.976593,307.018097 
	C319.473633,297.476044 328.190216,290.932129 338.442291,290.889069 
	C370.410431,290.754791 402.380249,290.712311 434.347839,290.901550 
	C447.843262,290.981415 458.218414,301.796143 458.400513,315.204254 
	C458.582092,328.572906 448.386963,339.651154 434.963928,340.098389 
	C424.152832,340.458618 413.321960,340.226898 401.999878,340.257782 
M330.065826,312.212799 
	C328.696716,320.588318 332.275726,325.184875 340.574921,325.204437 
	C371.201111,325.276703 401.827637,325.264893 432.453857,325.206787 
	C439.219940,325.193939 443.347046,321.380249 443.364349,315.539062 
	C443.381592,309.709229 439.202850,305.861420 432.497437,305.851532 
	C401.871155,305.806488 371.244659,305.870239 340.618530,305.789520 
	C336.003784,305.777344 332.558960,307.348907 330.065826,312.212799 
z"/>
<path fill="#030303" opacity="1.000000" stroke="none" 
	d="
M333.168274,461.144531 
	C319.689728,456.599152 312.953766,446.069458 314.876984,433.104492 
	C316.679688,420.951782 326.912659,412.423828 340.380188,412.369537 
	C371.032135,412.245972 401.685242,412.246796 432.337250,412.364746 
	C447.568481,412.423370 458.529541,423.128510 458.393951,437.378632 
	C458.258148,451.647156 447.242279,461.965820 431.949799,461.988068 
	C401.630585,462.032166 371.311279,462.019104 340.992096,461.967651 
	C338.519196,461.963440 336.047089,461.484894 333.168274,461.144531 
M439.391937,445.056305 
	C443.356049,442.004730 444.338440,437.906006 442.652222,433.472382 
	C440.902802,428.872467 436.905304,427.321198 432.196808,427.322968 
	C413.207916,427.330048 394.219055,427.324677 375.230164,427.324554 
	C363.736908,427.324463 352.243622,427.324768 340.750366,427.326630 
	C335.842255,427.327423 331.861664,429.003143 330.082214,433.904755 
	C327.666565,440.558777 332.452515,446.943481 340.068237,446.965057 
	C371.049866,447.052826 402.031921,447.027466 433.013550,446.938171 
	C434.923309,446.932678 436.830475,446.018646 439.391937,445.056305 
z"/>
<path fill="#030303" opacity="1.000000" stroke="none" 
	d="
M323.754761,152.324097 
	C314.941956,144.014038 312.274994,133.855728 316.117249,124.034264 
	C319.957977,114.216743 328.984344,108.182037 340.459961,108.153229 
	C371.123566,108.076225 401.787750,108.050018 432.451141,108.160355 
	C447.564423,108.214737 458.594574,119.086609 458.395386,133.329269 
	C458.198425,147.412323 447.227966,157.825912 432.313751,157.856247 
	C401.816742,157.918259 371.319458,157.856155 340.822388,157.889709 
	C334.628693,157.896530 328.986694,156.355896 323.754761,152.324097 
M401.500031,123.120377 
	C381.358368,123.121017 361.216614,123.086723 341.075104,123.141304 
	C334.052185,123.160332 329.625458,126.977196 329.511566,132.830414 
	C329.393860,138.877060 333.940857,142.858963 341.206024,142.866440 
	C371.335266,142.897446 401.464600,142.895874 431.593842,142.867813 
	C439.013611,142.860901 443.390594,139.099167 443.355713,132.950089 
	C443.321045,126.837990 438.941681,123.171280 431.464050,123.133598 
	C421.809601,123.084938 412.154755,123.120872 401.500031,123.120377 
z"/>
<path fill="#030303" opacity="1.000000" stroke="none" 
	d="
M315.109009,199.610565 
	C312.738220,181.266373 323.368500,169.053802 341.363586,169.041977 
	C372.184448,169.021713 403.005676,168.958099 433.826019,169.084961 
	C445.968811,169.134933 456.323608,178.116135 458.040039,189.551651 
	C459.935974,202.183090 453.164154,213.617065 441.277832,217.306274 
	C438.154907,218.275543 434.738464,218.679031 431.454559,218.690231 
	C401.467041,218.792526 371.478943,218.789780 341.491150,218.733276 
	C327.916107,218.707687 319.702393,212.769897 315.109009,199.610565 
M362.500000,184.031967 
	C354.843567,184.035828 347.184601,183.921158 339.531494,184.082611 
	C333.843842,184.202606 329.886444,188.002548 329.544434,193.222229 
	C329.188385,198.657028 332.896271,202.876953 338.769623,203.627808 
	C340.082672,203.795670 341.426880,203.751678 342.756744,203.751953 
	C371.884583,203.758041 401.012482,203.773880 430.140228,203.723328 
	C432.443573,203.719330 434.877258,203.635437 437.024811,202.915710 
	C443.868256,200.622223 445.806610,191.225021 440.122101,186.801620 
	C437.865753,185.045853 434.358032,184.175812 431.408386,184.148254 
	C408.773865,183.936722 386.136505,184.031982 362.500000,184.031967 
z"/>


<path fill="#E1DEE1" opacity="1.000000" stroke="none" 
	d="
M348.018097,264.419586 
	C344.363708,264.363739 341.182678,264.527435 338.052490,264.202026 
	C333.009583,263.677734 329.587677,259.723938 329.531891,254.791260 
	C329.474792,249.745087 333.190277,245.595215 338.315125,245.017105 
	C339.138641,244.924179 339.976501,244.937012 340.807709,244.936920 
	C371.250549,244.933243 401.693420,244.916214 432.136230,244.948044 
	C438.595062,244.954788 442.564850,248.041809 443.227173,253.326096 
	C443.933411,258.960541 440.485718,263.509247 434.840942,264.225861 
	C433.035675,264.455017 431.189789,264.411713 429.362457,264.412415 
	C402.413055,264.422791 375.463684,264.419556 348.018097,264.419586 
z"/>
<path fill="#E1DEE1" opacity="1.000000" stroke="none" 
	d="
M438.442719,384.829712 
	C436.803833,385.347748 435.533081,385.982422 434.261139,385.984772 
	C402.466522,386.043488 370.671692,386.059326 338.877014,386.011261 
	C334.590942,386.004791 331.582916,383.612152 330.160004,379.708557 
	C328.741364,375.816528 329.241577,371.623688 332.762268,369.359924 
	C335.477417,367.614136 339.202911,366.725433 342.489899,366.697113 
	C367.125122,366.484772 391.762970,366.580475 416.400024,366.581085 
	C421.726929,366.581207 427.054077,366.617767 432.380707,366.580292 
	C437.134308,366.546875 441.041168,368.191345 442.702545,372.838867 
	C444.391998,377.565002 443.048126,381.682098 438.442719,384.829712 
z"/>
<path fill="#E1DEE1" opacity="1.000000" stroke="none" 
	d="
M330.206329,311.825256 
	C332.558960,307.348907 336.003784,305.777344 340.618530,305.789520 
	C371.244659,305.870239 401.871155,305.806488 432.497437,305.851532 
	C439.202850,305.861420 443.381592,309.709229 443.364349,315.539062 
	C443.347046,321.380249 439.219940,325.193939 432.453857,325.206787 
	C401.827637,325.264893 371.201111,325.276703 340.574921,325.204437 
	C332.275726,325.184875 328.696716,320.588318 330.206329,311.825256 
z"/>
<path fill="#DDDADD" opacity="1.000000" stroke="none" 
	d="
M439.065369,445.291809 
	C436.830475,446.018646 434.923309,446.932678 433.013550,446.938171 
	C402.031921,447.027466 371.049866,447.052826 340.068237,446.965057 
	C332.452515,446.943481 327.666565,440.558777 330.082214,433.904755 
	C331.861664,429.003143 335.842255,427.327423 340.750366,427.326630 
	C352.243622,427.324768 363.736908,427.324463 375.230164,427.324554 
	C394.219055,427.324677 413.207916,427.330048 432.196808,427.322968 
	C436.905304,427.321198 440.902802,428.872467 442.652222,433.472382 
	C444.338440,437.906006 443.356049,442.004730 439.065369,445.291809 
z"/>
<path fill="#DDDADD" opacity="1.000000" stroke="none" 
	d="
M402.000061,123.120377 
	C412.154755,123.120872 421.809601,123.084938 431.464050,123.133598 
	C438.941681,123.171280 443.321045,126.837990 443.355713,132.950089 
	C443.390594,139.099167 439.013611,142.860901 431.593842,142.867813 
	C401.464600,142.895874 371.335266,142.897446 341.206024,142.866440 
	C333.940857,142.858963 329.393860,138.877060 329.511566,132.830414 
	C329.625458,126.977196 334.052185,123.160332 341.075104,123.141304 
	C361.216614,123.086723 381.358368,123.121017 402.000061,123.120377 
z"/>
<path fill="#DDDADD" opacity="1.000000" stroke="none" 
	d="
M363.000000,184.031967 
	C386.136505,184.031982 408.773865,183.936722 431.408386,184.148254 
	C434.358032,184.175812 437.865753,185.045853 440.122101,186.801620 
	C445.806610,191.225021 443.868256,200.622223 437.024811,202.915710 
	C434.877258,203.635437 432.443573,203.719330 430.140228,203.723328 
	C401.012482,203.773880 371.884583,203.758041 342.756744,203.751953 
	C341.426880,203.751678 340.082672,203.795670 338.769623,203.627808 
	C332.896271,202.876953 329.188385,198.657028 329.544434,193.222229 
	C329.886444,188.002548 333.843842,184.202606 339.531494,184.082611 
	C347.184601,183.921158 354.843567,184.035828 363.000000,184.031967 
z"/>
</svg>